<svg xmlns="http://www.w3.org/2000/svg" xmlns:xlink="http://www.w3.org/1999/xlink" viewBox="183.5 37.6 108.0 108.0"><rect x="183.5" y="37.6" width="108.0" height="108.0" fill="transparent"/><g><path xmlns="http://www.w3.org/2000/svg" fill-rule="nonzero" fill="rgb(3.898621%, 52.198792%, 80.799866%)" fill-opacity="1" d="M 257.785156 72.699219 L 269.828125 87.941406 L 271.429688 74.296875 Z M 257.785156 72.699219 " />
<path xmlns="http://www.w3.org/2000/svg" fill-rule="nonzero" fill="rgb(3.898621%, 52.198792%, 80.799866%)" fill-opacity="1" d="M 285.074219 75.898438 L 273.03125 60.65625 L 271.429688 74.296875 Z M 285.074219 75.898438 " />
<path xmlns="http://www.w3.org/2000/svg" fill-rule="nonzero" fill="rgb(0%, 24.699402%, 49.798584%)" fill-opacity="1" d="M 285.074219 75.898438 L 269.828125 87.941406 L 271.429688 74.296875 Z M 285.074219 75.898438 " />
<path xmlns="http://www.w3.org/2000/svg" fill-rule="nonzero" fill="rgb(1.998901%, 70.999146%, 90.19928%)" fill-opacity="1" d="M 257.785156 72.699219 L 273.03125 60.65625 L 271.429688 74.296875 Z M 257.785156 72.699219 " />
<path xmlns="http://www.w3.org/2000/svg" fill-rule="nonzero" fill="rgb(79.998779%, 0.799561%, 0.799561%)" fill-opacity="1" d="M 269.378906 73.632812 C 269.011719 74.765625 269.632812 75.980469 270.765625 76.347656 C 271.894531 76.714844 273.113281 76.09375 273.480469 74.964844 C 273.847656 73.832031 273.226562 72.617188 272.097656 72.246094 C 270.964844 71.878906 269.75 72.5 269.378906 73.632812 " />
<path xmlns="http://www.w3.org/2000/svg" fill-rule="nonzero" fill="rgb(79.998779%, 0.799561%, 0.799561%)" fill-opacity="1" d="M 267.78125 87.273438 C 267.410156 88.40625 268.03125 89.621094 269.164062 89.992188 C 270.296875 90.359375 271.511719 89.738281 271.878906 88.605469 C 272.246094 87.472656 271.625 86.257812 270.496094 85.890625 C 269.363281 85.523438 268.148438 86.140625 267.78125 87.273438 " />
<path xmlns="http://www.w3.org/2000/svg" fill-rule="nonzero" fill="rgb(79.998779%, 0.799561%, 0.799561%)" fill-opacity="1" d="M 270.980469 59.988281 C 270.613281 61.121094 271.230469 62.335938 272.363281 62.703125 C 273.496094 63.070312 274.710938 62.453125 275.078125 61.320312 C 275.445312 60.1875 274.828125 58.972656 273.695312 58.605469 C 272.5625 58.238281 271.347656 58.855469 270.980469 59.988281 " />
<path xmlns="http://www.w3.org/2000/svg" fill-rule="nonzero" fill="rgb(79.998779%, 0.799561%, 0.799561%)" fill-opacity="1" d="M 283.023438 75.230469 C 282.65625 76.363281 283.273438 77.578125 284.40625 77.949219 C 285.539062 78.316406 286.753906 77.695312 287.121094 76.5625 C 287.488281 75.429688 286.871094 74.214844 285.738281 73.847656 C 284.605469 73.480469 283.390625 74.097656 283.023438 75.230469 " />
<animateTransform attributeName="transform" type="rotate" values="0 271.5 74.5;8 271.5 74.5;0 271.5 74.5;-8 271.5 74.5;0 271.5 74.5" keyTimes="0;0.25;0.5;0.75;1" calcMode="spline" keySplines="0.45 0 0.55 1;0.45 0 0.55 1;0.45 0 0.55 1;0.45 0 0.55 1" dur="6s" repeatCount="indefinite"/></g><g><path xmlns="http://www.w3.org/2000/svg" fill-rule="nonzero" fill="rgb(3.898621%, 52.198792%, 80.799866%)" fill-opacity="1" d="M 233.832031 59.25 L 239.082031 77.953125 L 245.808594 65.972656 Z M 233.832031 59.25 " />
<path xmlns="http://www.w3.org/2000/svg" fill-rule="nonzero" fill="rgb(3.898621%, 52.198792%, 80.799866%)" fill-opacity="1" d="M 257.785156 72.699219 L 252.535156 53.996094 L 245.808594 65.972656 Z M 257.785156 72.699219 " />
<path xmlns="http://www.w3.org/2000/svg" fill-rule="nonzero" fill="rgb(0%, 24.699402%, 49.798584%)" fill-opacity="1" d="M 257.785156 72.699219 L 239.085938 77.949219 L 245.808594 65.972656 Z M 257.785156 72.699219 " />
<path xmlns="http://www.w3.org/2000/svg" fill-rule="nonzero" fill="rgb(1.998901%, 70.999146%, 90.19928%)" fill-opacity="1" d="M 233.832031 59.25 L 252.53125 53.996094 L 245.808594 65.972656 Z M 233.832031 59.25 " />
<path xmlns="http://www.w3.org/2000/svg" fill-rule="nonzero" fill="rgb(79.998779%, 0.799561%, 0.799561%)" fill-opacity="1" d="M 243.757812 65.308594 C 243.390625 66.4375 244.011719 67.65625 245.144531 68.023438 C 246.273438 68.390625 247.492188 67.769531 247.859375 66.640625 C 248.226562 65.507812 247.605469 64.292969 246.476562 63.921875 C 245.34375 63.554688 244.128906 64.175781 243.757812 65.308594 " />
<path xmlns="http://www.w3.org/2000/svg" fill-rule="nonzero" fill="rgb(79.998779%, 0.799561%, 0.799561%)" fill-opacity="1" d="M 250.484375 53.328125 C 250.117188 54.460938 250.734375 55.675781 251.867188 56.042969 C 253 56.410156 254.214844 55.792969 254.582031 54.660156 C 254.949219 53.527344 254.332031 52.3125 253.199219 51.945312 C 252.066406 51.578125 250.851562 52.195312 250.484375 53.328125 " />
<path xmlns="http://www.w3.org/2000/svg" fill-rule="nonzero" fill="rgb(79.998779%, 0.799561%, 0.799561%)" fill-opacity="1" d="M 255.738281 72.03125 C 255.367188 73.164062 255.988281 74.378906 257.121094 74.746094 C 258.253906 75.113281 259.46875 74.496094 259.835938 73.363281 C 260.203125 72.230469 259.585938 71.015625 258.453125 70.648438 C 257.320312 70.28125 256.105469 70.898438 255.738281 72.03125 " />
<path xmlns="http://www.w3.org/2000/svg" fill-rule="nonzero" fill="rgb(79.998779%, 0.799561%, 0.799561%)" fill-opacity="1" d="M 231.78125 58.582031 C 231.414062 59.714844 232.03125 60.929688 233.164062 61.296875 C 234.296875 61.664062 235.511719 61.046875 235.878906 59.914062 C 236.246094 58.78125 235.628906 57.566406 234.496094 57.199219 C 233.363281 56.832031 232.148438 57.449219 231.78125 58.582031 " />
<animateTransform attributeName="transform" type="rotate" values="0 246.0 66.0;-8 246.0 66.0;0 246.0 66.0;8 246.0 66.0;0 246.0 66.0" keyTimes="0;0.25;0.5;0.75;1" calcMode="spline" keySplines="0.45 0 0.55 1;0.45 0 0.55 1;0.45 0 0.55 1;0.45 0 0.55 1" dur="6s" repeatCount="indefinite"/></g><g><path xmlns="http://www.w3.org/2000/svg" fill-rule="nonzero" fill="rgb(3.898621%, 52.198792%, 80.799866%)" fill-opacity="1" d="M 206.546875 56.046875 L 218.589844 71.289062 L 220.1875 57.648438 Z M 206.546875 56.046875 " />
<path xmlns="http://www.w3.org/2000/svg" fill-rule="nonzero" fill="rgb(3.898621%, 52.198792%, 80.799866%)" fill-opacity="1" d="M 233.832031 59.25 L 221.789062 44.003906 L 220.1875 57.648438 Z M 233.832031 59.25 " />
<path xmlns="http://www.w3.org/2000/svg" fill-rule="nonzero" fill="rgb(0%, 24.699402%, 49.798584%)" fill-opacity="1" d="M 233.832031 59.25 L 218.589844 71.292969 L 220.1875 57.648438 Z M 233.832031 59.25 " />
<path xmlns="http://www.w3.org/2000/svg" fill-rule="nonzero" fill="rgb(1.998901%, 70.999146%, 90.19928%)" fill-opacity="1" d="M 206.546875 56.046875 L 221.789062 44.003906 L 220.1875 57.648438 Z M 206.546875 56.046875 " />
<path xmlns="http://www.w3.org/2000/svg" fill-rule="nonzero" fill="rgb(79.998779%, 0.799561%, 0.799561%)" fill-opacity="1" d="M 218.136719 56.980469 C 217.769531 58.113281 218.390625 59.328125 219.523438 59.699219 C 220.652344 60.066406 221.871094 59.445312 222.238281 58.3125 C 222.605469 57.183594 221.984375 55.964844 220.855469 55.597656 C 219.722656 55.230469 218.507812 55.851562 218.136719 56.980469 " />
<path xmlns="http://www.w3.org/2000/svg" fill-rule="nonzero" fill="rgb(79.998779%, 0.799561%, 0.799561%)" fill-opacity="1" d="M 216.539062 70.625 C 216.167969 71.757812 216.789062 72.972656 217.921875 73.339844 C 219.054688 73.707031 220.269531 73.089844 220.636719 71.957031 C 221.003906 70.824219 220.386719 69.609375 219.253906 69.242188 C 218.121094 68.875 216.90625 69.492188 216.539062 70.625 " />
<path xmlns="http://www.w3.org/2000/svg" fill-rule="nonzero" fill="rgb(79.998779%, 0.799561%, 0.799561%)" fill-opacity="1" d="M 219.738281 43.339844 C 219.371094 44.472656 219.988281 45.6875 221.121094 46.054688 C 222.253906 46.421875 223.46875 45.804688 223.839844 44.671875 C 224.207031 43.539062 223.585938 42.324219 222.453125 41.957031 C 221.320312 41.589844 220.105469 42.207031 219.738281 43.339844 " />
<path xmlns="http://www.w3.org/2000/svg" fill-rule="nonzero" fill="rgb(79.998779%, 0.799561%, 0.799561%)" fill-opacity="1" d="M 204.496094 55.382812 C 204.128906 56.515625 204.746094 57.730469 205.878906 58.097656 C 207.011719 58.464844 208.226562 57.84375 208.59375 56.714844 C 208.960938 55.582031 208.34375 54.367188 207.210938 54 C 206.078125 53.632812 204.863281 54.25 204.496094 55.382812 " />
<animateTransform attributeName="transform" type="rotate" values="0 220.0 57.5;8 220.0 57.5;0 220.0 57.5;-8 220.0 57.5;0 220.0 57.5" keyTimes="0;0.25;0.5;0.75;1" calcMode="spline" keySplines="0.45 0 0.55 1;0.45 0 0.55 1;0.45 0 0.55 1;0.45 0 0.55 1" dur="6s" repeatCount="indefinite"/></g><g><path xmlns="http://www.w3.org/2000/svg" fill-rule="nonzero" fill="rgb(3.898621%, 52.198792%, 80.799866%)" fill-opacity="1" d="M 251.125 93.195312 L 256.378906 111.894531 L 263.105469 99.917969 Z M 251.125 93.195312 " />
<path xmlns="http://www.w3.org/2000/svg" fill-rule="nonzero" fill="rgb(3.898621%, 52.198792%, 80.799866%)" fill-opacity="1" d="M 275.082031 106.644531 L 269.828125 87.941406 L 263.105469 99.917969 Z M 275.082031 106.644531 " />
<path xmlns="http://www.w3.org/2000/svg" fill-rule="nonzero" fill="rgb(0%, 24.699402%, 49.798584%)" fill-opacity="1" d="M 275.082031 106.644531 L 256.378906 111.894531 L 263.105469 99.917969 Z M 275.082031 106.644531 " />
<path xmlns="http://www.w3.org/2000/svg" fill-rule="nonzero" fill="rgb(1.998901%, 70.999146%, 90.19928%)" fill-opacity="1" d="M 251.125 93.195312 L 269.828125 87.941406 L 263.105469 99.917969 Z M 251.125 93.195312 " />
<path xmlns="http://www.w3.org/2000/svg" fill-rule="nonzero" fill="rgb(79.998779%, 0.799561%, 0.799561%)" fill-opacity="1" d="M 254.332031 111.230469 C 253.960938 112.363281 254.582031 113.578125 255.714844 113.945312 C 256.847656 114.3125 258.0625 113.695312 258.429688 112.5625 C 258.796875 111.429688 258.179688 110.214844 257.046875 109.847656 C 255.914062 109.480469 254.699219 110.097656 254.332031 111.230469 " />
<path xmlns="http://www.w3.org/2000/svg" fill-rule="nonzero" fill="rgb(79.998779%, 0.799561%, 0.799561%)" fill-opacity="1" d="M 261.054688 99.253906 C 260.6875 100.386719 261.304688 101.601562 262.4375 101.96875 C 263.570312 102.335938 264.785156 101.714844 265.15625 100.585938 C 265.523438 99.453125 264.902344 98.238281 263.769531 97.867188 C 262.636719 97.5 261.421875 98.121094 261.054688 99.253906 " />
<path xmlns="http://www.w3.org/2000/svg" fill-rule="nonzero" fill="rgb(79.998779%, 0.799561%, 0.799561%)" fill-opacity="1" d="M 249.078125 92.527344 C 248.710938 93.660156 249.328125 94.875 250.460938 95.242188 C 251.59375 95.609375 252.808594 94.992188 253.175781 93.859375 C 253.542969 92.726562 252.925781 91.511719 251.792969 91.144531 C 250.660156 90.777344 249.445312 91.394531 249.078125 92.527344 " />
<path xmlns="http://www.w3.org/2000/svg" fill-rule="nonzero" fill="rgb(79.998779%, 0.799561%, 0.799561%)" fill-opacity="1" d="M 273.03125 105.976562 C 272.664062 107.109375 273.285156 108.324219 274.417969 108.691406 C 275.546875 109.058594 276.765625 108.441406 277.132812 107.308594 C 277.5 106.175781 276.878906 104.960938 275.75 104.59375 C 274.617188 104.226562 273.402344 104.84375 273.03125 105.976562 " />
<animateTransform attributeName="transform" type="rotate" values="0 263.0 100.0;-8 263.0 100.0;0 263.0 100.0;8 263.0 100.0;0 263.0 100.0" keyTimes="0;0.25;0.5;0.75;1" calcMode="spline" keySplines="0.45 0 0.55 1;0.45 0 0.55 1;0.45 0 0.55 1;0.45 0 0.55 1" dur="6s" repeatCount="indefinite"/></g><g><path xmlns="http://www.w3.org/2000/svg" fill-rule="nonzero" fill="rgb(3.898621%, 52.198792%, 80.799866%)" fill-opacity="1" d="M 223.839844 89.992188 L 235.882812 105.234375 L 237.484375 91.59375 Z M 223.839844 89.992188 " />
<path xmlns="http://www.w3.org/2000/svg" fill-rule="nonzero" fill="rgb(3.898621%, 52.198792%, 80.799866%)" fill-opacity="1" d="M 251.125 93.195312 L 239.085938 77.953125 L 237.484375 91.59375 Z M 251.125 93.195312 " />
<path xmlns="http://www.w3.org/2000/svg" fill-rule="nonzero" fill="rgb(0%, 24.699402%, 49.798584%)" fill-opacity="1" d="M 251.125 93.195312 L 235.882812 105.238281 L 237.484375 91.59375 Z M 251.125 93.195312 " />
<path xmlns="http://www.w3.org/2000/svg" fill-rule="nonzero" fill="rgb(1.998901%, 70.999146%, 90.19928%)" fill-opacity="1" d="M 223.839844 89.992188 L 239.082031 77.949219 L 237.484375 91.59375 Z M 223.839844 89.992188 " />
<path xmlns="http://www.w3.org/2000/svg" fill-rule="nonzero" fill="rgb(79.998779%, 0.799561%, 0.799561%)" fill-opacity="1" d="M 237.035156 77.285156 C 236.667969 78.417969 237.285156 79.632812 238.417969 80 C 239.550781 80.367188 240.765625 79.75 241.132812 78.617188 C 241.5 77.484375 240.882812 76.269531 239.75 75.902344 C 238.617188 75.535156 237.402344 76.152344 237.035156 77.285156 " />
<path xmlns="http://www.w3.org/2000/svg" fill-rule="nonzero" fill="rgb(79.998779%, 0.799561%, 0.799561%)" fill-opacity="1" d="M 235.433594 90.925781 C 235.066406 92.058594 235.6875 93.277344 236.816406 93.644531 C 237.949219 94.011719 239.164062 93.390625 239.535156 92.257812 C 239.902344 91.128906 239.28125 89.910156 238.148438 89.542969 C 237.019531 89.175781 235.800781 89.796875 235.433594 90.925781 " />
<animateTransform attributeName="transform" type="rotate" values="0 237.5 91.5;8 237.5 91.5;0 237.5 91.5;-8 237.5 91.5;0 237.5 91.5" keyTimes="0;0.25;0.5;0.75;1" calcMode="spline" keySplines="0.45 0 0.55 1;0.45 0 0.55 1;0.45 0 0.55 1;0.45 0 0.55 1" dur="6s" repeatCount="indefinite"/></g><g><path xmlns="http://www.w3.org/2000/svg" fill-rule="nonzero" fill="rgb(3.898621%, 52.198792%, 80.799866%)" fill-opacity="1" d="M 199.886719 76.542969 L 205.136719 95.246094 L 211.863281 83.269531 Z M 199.886719 76.542969 " />
<path xmlns="http://www.w3.org/2000/svg" fill-rule="nonzero" fill="rgb(3.898621%, 52.198792%, 80.799866%)" fill-opacity="1" d="M 223.839844 89.992188 L 218.589844 71.292969 L 211.863281 83.269531 Z M 223.839844 89.992188 " />
<path xmlns="http://www.w3.org/2000/svg" fill-rule="nonzero" fill="rgb(0%, 24.699402%, 49.798584%)" fill-opacity="1" d="M 223.839844 89.992188 L 205.140625 95.246094 L 211.863281 83.269531 Z M 223.839844 89.992188 " />
<path xmlns="http://www.w3.org/2000/svg" fill-rule="nonzero" fill="rgb(1.998901%, 70.999146%, 90.19928%)" fill-opacity="1" d="M 199.886719 76.542969 L 218.589844 71.292969 L 211.863281 83.269531 Z M 199.886719 76.542969 " />
<path xmlns="http://www.w3.org/2000/svg" fill-rule="nonzero" fill="rgb(79.998779%, 0.799561%, 0.799561%)" fill-opacity="1" d="M 203.089844 94.582031 C 202.722656 95.714844 203.339844 96.929688 204.472656 97.296875 C 205.605469 97.664062 206.820312 97.042969 207.1875 95.914062 C 207.554688 94.78125 206.9375 93.566406 205.804688 93.195312 C 204.671875 92.828125 203.457031 93.449219 203.089844 94.582031 " />
<path xmlns="http://www.w3.org/2000/svg" fill-rule="nonzero" fill="rgb(79.998779%, 0.799561%, 0.799561%)" fill-opacity="1" d="M 209.8125 82.601562 C 209.445312 83.734375 210.066406 84.949219 211.199219 85.320312 C 212.328125 85.6875 213.546875 85.066406 213.914062 83.933594 C 214.28125 82.800781 213.660156 81.585938 212.53125 81.21875 C 211.398438 80.851562 210.183594 81.46875 209.8125 82.601562 " />
<path xmlns="http://www.w3.org/2000/svg" fill-rule="nonzero" fill="rgb(79.998779%, 0.799561%, 0.799561%)" fill-opacity="1" d="M 197.835938 75.878906 C 197.46875 77.011719 198.085938 78.226562 199.21875 78.59375 C 200.351562 78.960938 201.566406 78.34375 201.933594 77.210938 C 202.300781 76.078125 201.683594 74.863281 200.550781 74.496094 C 199.417969 74.128906 198.203125 74.746094 197.835938 75.878906 " />
<path xmlns="http://www.w3.org/2000/svg" fill-rule="nonzero" fill="rgb(79.998779%, 0.799561%, 0.799561%)" fill-opacity="1" d="M 221.792969 89.328125 C 221.421875 90.460938 222.042969 91.675781 223.175781 92.042969 C 224.308594 92.410156 225.523438 91.792969 225.890625 90.660156 C 226.257812 89.527344 225.640625 88.3125 224.507812 87.945312 C 223.375 87.578125 222.160156 88.195312 221.792969 89.328125 " />
<animateTransform attributeName="transform" type="rotate" values="0 212.0 83.5;-8 212.0 83.5;0 212.0 83.5;8 212.0 83.5;0 212.0 83.5" keyTimes="0;0.25;0.5;0.75;1" calcMode="spline" keySplines="0.45 0 0.55 1;0.45 0 0.55 1;0.45 0 0.55 1;0.45 0 0.55 1" dur="6s" repeatCount="indefinite"/></g><g><path xmlns="http://www.w3.org/2000/svg" fill-rule="nonzero" fill="rgb(3.898621%, 52.198792%, 80.799866%)" fill-opacity="1" d="M 241.136719 123.9375 L 253.179688 139.179688 L 254.78125 125.539062 Z M 241.136719 123.9375 " />
<path xmlns="http://www.w3.org/2000/svg" fill-rule="nonzero" fill="rgb(3.898621%, 52.198792%, 80.799866%)" fill-opacity="1" d="M 268.421875 127.140625 L 256.378906 111.898438 L 254.78125 125.539062 Z M 268.421875 127.140625 " />
<path xmlns="http://www.w3.org/2000/svg" fill-rule="nonzero" fill="rgb(0%, 24.699402%, 49.798584%)" fill-opacity="1" d="M 268.421875 127.140625 L 253.179688 139.183594 L 254.78125 125.539062 Z M 268.421875 127.140625 " />
<path xmlns="http://www.w3.org/2000/svg" fill-rule="nonzero" fill="rgb(1.998901%, 70.999146%, 90.19928%)" fill-opacity="1" d="M 241.136719 123.9375 L 256.378906 111.894531 L 254.78125 125.539062 Z M 241.136719 123.9375 " />
<path xmlns="http://www.w3.org/2000/svg" fill-rule="nonzero" fill="rgb(79.998779%, 0.799561%, 0.799561%)" fill-opacity="1" d="M 251.128906 138.515625 C 250.761719 139.648438 251.382812 140.863281 252.515625 141.230469 C 253.644531 141.597656 254.863281 140.980469 255.230469 139.847656 C 255.597656 138.714844 254.976562 137.5 253.847656 137.132812 C 252.714844 136.765625 251.5 137.382812 251.128906 138.515625 " />
<path xmlns="http://www.w3.org/2000/svg" fill-rule="nonzero" fill="rgb(79.998779%, 0.799561%, 0.799561%)" fill-opacity="1" d="M 252.730469 124.875 C 252.363281 126.003906 252.980469 127.222656 254.113281 127.589844 C 255.246094 127.957031 256.460938 127.335938 256.832031 126.207031 C 257.199219 125.074219 256.578125 123.859375 255.445312 123.488281 C 254.3125 123.121094 253.097656 123.742188 252.730469 124.875 " />
<path xmlns="http://www.w3.org/2000/svg" fill-rule="nonzero" fill="rgb(79.998779%, 0.799561%, 0.799561%)" fill-opacity="1" d="M 239.085938 123.273438 C 238.71875 124.40625 239.339844 125.621094 240.472656 125.988281 C 241.601562 126.355469 242.820312 125.738281 243.1875 124.605469 C 243.554688 123.472656 242.933594 122.257812 241.804688 121.890625 C 240.671875 121.523438 239.457031 122.140625 239.085938 123.273438 " />
<path xmlns="http://www.w3.org/2000/svg" fill-rule="nonzero" fill="rgb(79.998779%, 0.799561%, 0.799561%)" fill-opacity="1" d="M 266.375 126.472656 C 266.003906 127.605469 266.625 128.820312 267.757812 129.1875 C 268.890625 129.554688 270.105469 128.9375 270.472656 127.804688 C 270.839844 126.671875 270.222656 125.457031 269.089844 125.089844 C 267.957031 124.722656 266.742188 125.339844 266.375 126.472656 " />
<animateTransform attributeName="transform" type="rotate" values="0 255.0 125.5;8 255.0 125.5;0 255.0 125.5;-8 255.0 125.5;0 255.0 125.5" keyTimes="0;0.25;0.5;0.75;1" calcMode="spline" keySplines="0.45 0 0.55 1;0.45 0 0.55 1;0.45 0 0.55 1;0.45 0 0.55 1" dur="6s" repeatCount="indefinite"/></g><g><path xmlns="http://www.w3.org/2000/svg" fill-rule="nonzero" fill="rgb(3.898621%, 52.198792%, 80.799866%)" fill-opacity="1" d="M 217.179688 110.488281 L 222.433594 129.191406 L 229.160156 117.214844 Z M 217.179688 110.488281 " />
<path xmlns="http://www.w3.org/2000/svg" fill-rule="nonzero" fill="rgb(3.898621%, 52.198792%, 80.799866%)" fill-opacity="1" d="M 241.136719 123.9375 L 235.882812 105.238281 L 229.160156 117.214844 Z M 241.136719 123.9375 " />
<path xmlns="http://www.w3.org/2000/svg" fill-rule="nonzero" fill="rgb(0%, 24.699402%, 49.798584%)" fill-opacity="1" d="M 241.136719 123.9375 L 222.433594 129.191406 L 229.160156 117.214844 Z M 241.136719 123.9375 " />
<path xmlns="http://www.w3.org/2000/svg" fill-rule="nonzero" fill="rgb(1.998901%, 70.999146%, 90.19928%)" fill-opacity="1" d="M 217.179688 110.488281 L 235.882812 105.238281 L 229.160156 117.214844 Z M 217.179688 110.488281 " />
<path xmlns="http://www.w3.org/2000/svg" fill-rule="nonzero" fill="rgb(79.998779%, 0.799561%, 0.799561%)" fill-opacity="1" d="M 220.386719 128.527344 C 220.015625 129.660156 220.636719 130.875 221.769531 131.242188 C 222.902344 131.609375 224.117188 130.988281 224.484375 129.859375 C 224.851562 128.726562 224.234375 127.511719 223.101562 127.144531 C 221.96875 126.777344 220.753906 127.394531 220.386719 128.527344 " />
<path xmlns="http://www.w3.org/2000/svg" fill-rule="nonzero" fill="rgb(79.998779%, 0.799561%, 0.799561%)" fill-opacity="1" d="M 233.835938 104.570312 C 233.464844 105.703125 234.085938 106.917969 235.21875 107.285156 C 236.347656 107.652344 237.566406 107.035156 237.933594 105.902344 C 238.300781 104.769531 237.679688 103.554688 236.550781 103.1875 C 235.417969 102.820312 234.203125 103.4375 233.835938 104.570312 " />
<path xmlns="http://www.w3.org/2000/svg" fill-rule="nonzero" fill="rgb(79.998779%, 0.799561%, 0.799561%)" fill-opacity="1" d="M 215.132812 109.824219 C 214.761719 110.957031 215.382812 112.171875 216.515625 112.539062 C 217.648438 112.90625 218.863281 112.289062 219.230469 111.15625 C 219.597656 110.023438 218.980469 108.808594 217.847656 108.441406 C 216.714844 108.074219 215.5 108.691406 215.132812 109.824219 " />
<path xmlns="http://www.w3.org/2000/svg" fill-rule="nonzero" fill="rgb(79.998779%, 0.799561%, 0.799561%)" fill-opacity="1" d="M 227.109375 116.546875 C 226.742188 117.679688 227.359375 118.894531 228.492188 119.265625 C 229.625 119.632812 230.839844 119.011719 231.210938 117.878906 C 231.578125 116.75 230.957031 115.53125 229.824219 115.164062 C 228.691406 114.796875 227.476562 115.417969 227.109375 116.546875 " />
<animateTransform attributeName="transform" type="rotate" values="0 229.0 117.0;-8 229.0 117.0;0 229.0 117.0;8 229.0 117.0;0 229.0 117.0" keyTimes="0;0.25;0.5;0.75;1" calcMode="spline" keySplines="0.45 0 0.55 1;0.45 0 0.55 1;0.45 0 0.55 1;0.45 0 0.55 1" dur="6s" repeatCount="indefinite"/></g><g><path xmlns="http://www.w3.org/2000/svg" fill-rule="nonzero" fill="rgb(3.898621%, 52.198792%, 80.799866%)" fill-opacity="1" d="M 189.894531 107.289062 L 201.9375 122.53125 L 203.539062 108.890625 Z M 189.894531 107.289062 " />
<path xmlns="http://www.w3.org/2000/svg" fill-rule="nonzero" fill="rgb(3.898621%, 52.198792%, 80.799866%)" fill-opacity="1" d="M 217.179688 110.488281 L 205.136719 95.246094 L 203.539062 108.890625 Z M 217.179688 110.488281 " />
<path xmlns="http://www.w3.org/2000/svg" fill-rule="nonzero" fill="rgb(0%, 24.699402%, 49.798584%)" fill-opacity="1" d="M 217.179688 110.488281 L 201.9375 122.53125 L 203.539062 108.890625 Z M 217.179688 110.488281 " />
<path xmlns="http://www.w3.org/2000/svg" fill-rule="nonzero" fill="rgb(1.998901%, 70.999146%, 90.19928%)" fill-opacity="1" d="M 189.894531 107.289062 L 205.136719 95.246094 L 203.539062 108.890625 Z M 189.894531 107.289062 " />
<path xmlns="http://www.w3.org/2000/svg" fill-rule="nonzero" fill="rgb(79.998779%, 0.799561%, 0.799561%)" fill-opacity="1" d="M 199.886719 121.867188 C 199.519531 123 200.140625 124.214844 201.273438 124.582031 C 202.402344 124.949219 203.621094 124.332031 203.988281 123.199219 C 204.355469 122.066406 203.734375 120.851562 202.605469 120.484375 C 201.472656 120.117188 200.257812 120.734375 199.886719 121.867188 " />
<path xmlns="http://www.w3.org/2000/svg" fill-rule="nonzero" fill="rgb(79.998779%, 0.799561%, 0.799561%)" fill-opacity="1" d="M 187.847656 106.625 C 187.476562 107.757812 188.097656 108.972656 189.230469 109.339844 C 190.359375 109.707031 191.578125 109.085938 191.945312 107.957031 C 192.3125 106.824219 191.691406 105.609375 190.5625 105.238281 C 189.429688 104.871094 188.214844 105.492188 187.847656 106.625 " />
<path xmlns="http://www.w3.org/2000/svg" fill-rule="nonzero" fill="rgb(79.998779%, 0.799561%, 0.799561%)" fill-opacity="1" d="M 201.488281 108.222656 C 201.121094 109.355469 201.742188 110.570312 202.871094 110.941406 C 204.003906 111.308594 205.21875 110.6875 205.589844 109.554688 C 205.957031 108.421875 205.335938 107.207031 204.203125 106.839844 C 203.070312 106.472656 201.855469 107.089844 201.488281 108.222656 " />
<animateTransform attributeName="transform" type="rotate" values="0 203.5 109.0;8 203.5 109.0;0 203.5 109.0;-8 203.5 109.0;0 203.5 109.0" keyTimes="0;0.25;0.5;0.75;1" calcMode="spline" keySplines="0.45 0 0.55 1;0.45 0 0.55 1;0.45 0 0.55 1;0.45 0 0.55 1" dur="6s" repeatCount="indefinite"/></g><path xmlns="http://www.w3.org/2000/svg" fill-rule="nonzero" fill="rgb(0%, 74.899292%, 0%)" fill-opacity="1" d="M 249.332031 81.28125 C 248.414062 84.109375 249.960938 87.152344 252.792969 88.070312 C 255.621094 88.988281 258.660156 87.441406 259.582031 84.609375 C 260.5 81.78125 258.953125 78.742188 256.121094 77.820312 C 253.292969 76.902344 250.253906 78.449219 249.332031 81.28125 " />
<path xmlns="http://www.w3.org/2000/svg" fill-rule="nonzero" fill="rgb(0%, 74.899292%, 0%)" fill-opacity="1" d="M 223.710938 72.957031 C 222.792969 75.785156 224.339844 78.824219 227.171875 79.746094 C 230 80.664062 233.039062 79.117188 233.960938 76.285156 C 234.878906 73.457031 233.332031 70.417969 230.5 69.496094 C 227.671875 68.578125 224.632812 70.125 223.710938 72.957031 " />
<path xmlns="http://www.w3.org/2000/svg" fill-rule="nonzero" fill="rgb(0%, 74.899292%, 0%)" fill-opacity="1" d="M 215.386719 98.578125 C 214.46875 101.40625 216.015625 104.445312 218.847656 105.367188 C 221.675781 106.285156 224.714844 104.738281 225.636719 101.90625 C 226.554688 99.078125 225.007812 96.039062 222.175781 95.117188 C 219.347656 94.199219 216.308594 95.746094 215.386719 98.578125 " />
<path xmlns="http://www.w3.org/2000/svg" fill-rule="nonzero" fill="rgb(0%, 74.899292%, 0%)" fill-opacity="1" d="M 241.007812 106.902344 C 240.089844 109.730469 241.636719 112.769531 244.46875 113.691406 C 247.296875 114.609375 250.335938 113.0625 251.253906 110.230469 C 252.175781 107.402344 250.628906 104.363281 247.796875 103.441406 C 244.96875 102.523438 241.929688 104.070312 241.007812 106.902344 " />
</svg>
