<svg xmlns="http://www.w3.org/2000/svg" xmlns:xlink="http://www.w3.org/1999/xlink" viewBox="273.9 42.5 175.7 91.6"><rect x="273.9" y="42.5" width="175.7" height="91.6" fill="transparent"/><clipPath id="td-horizon"><rect x="273.9" y="42.5" width="175.7" height="87.6"/></clipPath><g clip-path="url(#td-horizon)"><g><path xmlns="http://www.w3.org/2000/svg" fill-rule="nonzero" fill="rgb(0%, 24.699402%, 49.798584%)" fill-opacity="1" d="M 445.636719 137.339844 L 441.3125 112.824219 L 428.191406 117.246094 L 431.792969 137.671875 Z M 445.636719 137.339844 " transform="translate(0,-10.0)"><animate attributeName="fill" values="rgb(0%, 24.699402%, 49.798584%);rgb(0%, 24.699402%, 49.798584%)" dur="5s" repeatCount="indefinite" /></path>
<path xmlns="http://www.w3.org/2000/svg" fill-rule="nonzero" fill="rgb(3.898621%, 52.198792%, 80.799866%)" fill-opacity="1" d="M 439.839844 108.78125 L 427.394531 87.226562 L 416.578125 95.867188 L 426.949219 113.832031 Z M 439.839844 108.78125 " transform="translate(0,-10.0)"><animate attributeName="fill" values="rgb(3.898621%, 52.198792%, 80.799866%);rgb(0%, 24.699402%, 49.798584%)" dur="5s" repeatCount="indefinite" /></path>
<path xmlns="http://www.w3.org/2000/svg" fill-rule="nonzero" fill="rgb(1.998901%, 70.999146%, 90.19928%)" fill-opacity="1" d="M 424.628906 83.929688 L 405.5625 67.929688 L 398.351562 79.75 L 414.242188 93.085938 Z M 424.628906 83.929688 " transform="translate(0,-10.0)"><animate attributeName="fill" values="rgb(1.998901%, 70.999146%, 90.19928%);rgb(3.898621%, 52.198792%, 80.799866%)" dur="5s" repeatCount="indefinite" /></path>
<path xmlns="http://www.w3.org/2000/svg" fill-rule="nonzero" fill="rgb(0%, 74.899292%, 0%)" fill-opacity="1" d="M 401.835938 65.78125 L 378.445312 57.265625 L 375.714844 70.839844 L 395.207031 77.933594 Z M 401.835938 65.78125 " transform="translate(0,-10.0)"><animate attributeName="fill" values="rgb(0%, 74.899292%, 0%);rgb(1.998901%, 70.999146%, 90.19928%)" dur="5s" repeatCount="indefinite" /></path>
<path xmlns="http://www.w3.org/2000/svg" fill-rule="nonzero" fill="rgb(59.999084%, 92.89856%, 0%)" fill-opacity="1" d="M 374.210938 56.519531 L 349.320312 56.519531 L 351.394531 70.210938 L 372.136719 70.210938 Z M 374.210938 56.519531 " transform="translate(0,-10.0)"><animate attributeName="fill" values="rgb(59.999084%, 92.89856%, 0%);rgb(0%, 74.899292%, 0%)" dur="5s" repeatCount="indefinite" /></path>
<path xmlns="http://www.w3.org/2000/svg" fill-rule="nonzero" fill="rgb(100%, 74.899292%, 0%)" fill-opacity="1" d="M 321.691406 65.78125 L 345.082031 57.265625 L 347.816406 70.839844 L 328.324219 77.933594 Z M 321.691406 65.78125 " transform="translate(0,-10.0)"><animate attributeName="fill" values="rgb(100%, 74.899292%, 0%);rgb(59.999084%, 92.89856%, 0%)" dur="5s" repeatCount="indefinite" /></path>
<path xmlns="http://www.w3.org/2000/svg" fill-rule="nonzero" fill="rgb(100%, 49.798584%, 0.39978%)" fill-opacity="1" d="M 298.898438 83.929688 L 317.964844 67.929688 L 325.175781 79.75 L 309.285156 93.085938 Z M 298.898438 83.929688 " transform="translate(0,-10.0)"><animate attributeName="fill" values="rgb(100%, 49.798584%, 0.39978%);rgb(100%, 74.899292%, 0%)" dur="5s" repeatCount="indefinite" /></path>
<path xmlns="http://www.w3.org/2000/svg" fill-rule="nonzero" fill="rgb(79.998779%, 0.799561%, 0.799561%)" fill-opacity="1" d="M 283.6875 108.78125 L 296.132812 87.226562 L 306.953125 95.867188 L 296.578125 113.832031 Z M 283.6875 108.78125 " transform="translate(0,-10.0)"><animate attributeName="fill" values="rgb(79.998779%, 0.799561%, 0.799561%);rgb(100%, 49.798584%, 0.39978%)" dur="5s" repeatCount="indefinite" /></path>
<path xmlns="http://www.w3.org/2000/svg" fill-rule="nonzero" fill="rgb(60.398865%, 0.799561%, 0.799561%)" fill-opacity="1" d="M 277.894531 137.339844 L 282.214844 112.824219 L 295.335938 117.246094 L 291.734375 137.671875 Z M 277.894531 137.339844 " transform="translate(0,-10.0)"><animate attributeName="fill" values="rgb(60.398865%, 0.799561%, 0.799561%);rgb(79.998779%, 0.799561%, 0.799561%)" dur="5s" repeatCount="indefinite" /></path>
<path xmlns="http://www.w3.org/2000/svg" fill="none" stroke-width="1" stroke-linecap="butt" stroke-linejoin="miter" stroke="#F2F2F2" stroke-opacity="1" stroke-miterlimit="10" d="M 0.00149352 0.000258727 L 0.00149352 41.578067 " transform="translate(0,-10.0) matrix(0.997753, 0, 0, -0.997753, 361.764135, 119.265883)" />
<path xmlns="http://www.w3.org/2000/svg" fill="none" stroke-width="1" stroke-linecap="butt" stroke-linejoin="miter" stroke="#F2F2F2" stroke-opacity="1" stroke-miterlimit="10" d="M -0.00147176 0.0011638 L 14.221897 39.069426 " transform="translate(0,-10.0) matrix(0.997753, 0, 0, -0.997753, 368.681156, 120.485536)" />
<path xmlns="http://www.w3.org/2000/svg" fill="none" stroke-width="1" stroke-linecap="butt" stroke-linejoin="miter" stroke="#F2F2F2" stroke-opacity="1" stroke-miterlimit="10" d="M 0.0016728 0.00133577 L 26.725789 31.85025 " transform="translate(0,-10.0) matrix(0.997753, 0, 0, -0.997753, 374.763956, 123.997427)" />
<path xmlns="http://www.w3.org/2000/svg" fill="none" stroke-width="1" stroke-linecap="butt" stroke-linejoin="miter" stroke="#F2F2F2" stroke-opacity="1" stroke-miterlimit="10" d="M -0.00119248 0.00158398 L 40.946293 7.220932 " transform="translate(0,-10.0) matrix(0.997753, 0, 0, -0.997753, 381.680877, 135.978143)" />
<path xmlns="http://www.w3.org/2000/svg" fill="none" stroke-width="1" stroke-linecap="butt" stroke-linejoin="miter" stroke="#F2F2F2" stroke-opacity="1" stroke-miterlimit="10" d="M -0.00134692 -0.00100018 L 36.009263 20.787904 " transform="translate(0,-10.0) matrix(0.997753, 0, 0, -0.997753, 379.278688, 129.377908)" />
<path xmlns="http://www.w3.org/2000/svg" fill="none" stroke-width="1" stroke-linecap="butt" stroke-linejoin="miter" stroke="#F2F2F2" stroke-opacity="1" stroke-miterlimit="10" d="M 0.000543764 0.0011638 L -14.222825 39.069426 " transform="translate(0,-10.0) matrix(0.997753, 0, 0, -0.997753, 354.847114, 120.485536)" />
<path xmlns="http://www.w3.org/2000/svg" fill="none" stroke-width="1" stroke-linecap="butt" stroke-linejoin="miter" stroke="#F2F2F2" stroke-opacity="1" stroke-miterlimit="10" d="M 0.00121425 0.00133577 L -26.726817 31.85025 " transform="translate(0,-10.0) matrix(0.997753, 0, 0, -0.997753, 348.764413, 123.997427)" />
<path xmlns="http://www.w3.org/2000/svg" fill="none" stroke-width="1" stroke-linecap="butt" stroke-linejoin="miter" stroke="#F2F2F2" stroke-opacity="1" stroke-miterlimit="10" d="M 0.000364485 0.00158398 L -40.947121 7.220932 " transform="translate(0,-10.0) matrix(0.997753, 0, 0, -0.997753, 341.847293, 135.978143)" />
<path xmlns="http://www.w3.org/2000/svg" fill="none" stroke-width="1" stroke-linecap="butt" stroke-linejoin="miter" stroke="#F2F2F2" stroke-opacity="1" stroke-miterlimit="10" d="M 0.000418919 -0.00100018 L -36.006276 20.787904 " transform="translate(0,-10.0) matrix(0.997753, 0, 0, -0.997753, 344.249582, 129.377908)" />
<g transform="rotate(180 361.8 130.1)"><path xmlns="http://www.w3.org/2000/svg" fill-rule="nonzero" fill="rgb(60.398865%, 0.799561%, 0.799561%)" fill-opacity="1" d="M 445.636719 137.339844 L 441.3125 112.824219 L 428.191406 117.246094 L 431.792969 137.671875 Z M 445.636719 137.339844 " transform="translate(0,-10.0)"><animate attributeName="fill" values="rgb(60.398865%, 0.799561%, 0.799561%);rgb(60.398865%, 0.799561%, 0.799561%)" dur="5s" repeatCount="indefinite" /></path>
<path xmlns="http://www.w3.org/2000/svg" fill-rule="nonzero" fill="rgb(79.998779%, 0.799561%, 0.799561%)" fill-opacity="1" d="M 439.839844 108.78125 L 427.394531 87.226562 L 416.578125 95.867188 L 426.949219 113.832031 Z M 439.839844 108.78125 " transform="translate(0,-10.0)"><animate attributeName="fill" values="rgb(79.998779%, 0.799561%, 0.799561%);rgb(60.398865%, 0.799561%, 0.799561%)" dur="5s" repeatCount="indefinite" /></path>
<path xmlns="http://www.w3.org/2000/svg" fill-rule="nonzero" fill="rgb(100%, 49.798584%, 0.39978%)" fill-opacity="1" d="M 424.628906 83.929688 L 405.5625 67.929688 L 398.351562 79.75 L 414.242188 93.085938 Z M 424.628906 83.929688 " transform="translate(0,-10.0)"><animate attributeName="fill" values="rgb(100%, 49.798584%, 0.39978%);rgb(79.998779%, 0.799561%, 0.799561%)" dur="5s" repeatCount="indefinite" /></path>
<path xmlns="http://www.w3.org/2000/svg" fill-rule="nonzero" fill="rgb(100%, 74.899292%, 0%)" fill-opacity="1" d="M 401.835938 65.78125 L 378.445312 57.265625 L 375.714844 70.839844 L 395.207031 77.933594 Z M 401.835938 65.78125 " transform="translate(0,-10.0)"><animate attributeName="fill" values="rgb(100%, 74.899292%, 0%);rgb(100%, 49.798584%, 0.39978%)" dur="5s" repeatCount="indefinite" /></path>
<path xmlns="http://www.w3.org/2000/svg" fill-rule="nonzero" fill="rgb(59.999084%, 92.89856%, 0%)" fill-opacity="1" d="M 374.210938 56.519531 L 349.320312 56.519531 L 351.394531 70.210938 L 372.136719 70.210938 Z M 374.210938 56.519531 " transform="translate(0,-10.0)"><animate attributeName="fill" values="rgb(59.999084%, 92.89856%, 0%);rgb(100%, 74.899292%, 0%)" dur="5s" repeatCount="indefinite" /></path>
<path xmlns="http://www.w3.org/2000/svg" fill-rule="nonzero" fill="rgb(0%, 74.899292%, 0%)" fill-opacity="1" d="M 321.691406 65.78125 L 345.082031 57.265625 L 347.816406 70.839844 L 328.324219 77.933594 Z M 321.691406 65.78125 " transform="translate(0,-10.0)"><animate attributeName="fill" values="rgb(0%, 74.899292%, 0%);rgb(59.999084%, 92.89856%, 0%)" dur="5s" repeatCount="indefinite" /></path>
<path xmlns="http://www.w3.org/2000/svg" fill-rule="nonzero" fill="rgb(1.998901%, 70.999146%, 90.19928%)" fill-opacity="1" d="M 298.898438 83.929688 L 317.964844 67.929688 L 325.175781 79.75 L 309.285156 93.085938 Z M 298.898438 83.929688 " transform="translate(0,-10.0)"><animate attributeName="fill" values="rgb(1.998901%, 70.999146%, 90.19928%);rgb(0%, 74.899292%, 0%)" dur="5s" repeatCount="indefinite" /></path>
<path xmlns="http://www.w3.org/2000/svg" fill-rule="nonzero" fill="rgb(3.898621%, 52.198792%, 80.799866%)" fill-opacity="1" d="M 283.6875 108.78125 L 296.132812 87.226562 L 306.953125 95.867188 L 296.578125 113.832031 Z M 283.6875 108.78125 " transform="translate(0,-10.0)"><animate attributeName="fill" values="rgb(3.898621%, 52.198792%, 80.799866%);rgb(1.998901%, 70.999146%, 90.19928%)" dur="5s" repeatCount="indefinite" /></path>
<path xmlns="http://www.w3.org/2000/svg" fill-rule="nonzero" fill="rgb(0%, 24.699402%, 49.798584%)" fill-opacity="1" d="M 277.894531 137.339844 L 282.214844 112.824219 L 295.335938 117.246094 L 291.734375 137.671875 Z M 277.894531 137.339844 " transform="translate(0,-10.0)"><animate attributeName="fill" values="rgb(0%, 24.699402%, 49.798584%);rgb(3.898621%, 52.198792%, 80.799866%)" dur="5s" repeatCount="indefinite" /></path>
<path xmlns="http://www.w3.org/2000/svg" fill="none" stroke-width="1" stroke-linecap="butt" stroke-linejoin="miter" stroke="#F2F2F2" stroke-opacity="1" stroke-miterlimit="10" d="M 0.00149352 0.000258727 L 0.00149352 41.578067 " transform="translate(0,-10.0) matrix(0.997753, 0, 0, -0.997753, 361.764135, 119.265883)" />
<path xmlns="http://www.w3.org/2000/svg" fill="none" stroke-width="1" stroke-linecap="butt" stroke-linejoin="miter" stroke="#F2F2F2" stroke-opacity="1" stroke-miterlimit="10" d="M -0.00147176 0.0011638 L 14.221897 39.069426 " transform="translate(0,-10.0) matrix(0.997753, 0, 0, -0.997753, 368.681156, 120.485536)" />
<path xmlns="http://www.w3.org/2000/svg" fill="none" stroke-width="1" stroke-linecap="butt" stroke-linejoin="miter" stroke="#F2F2F2" stroke-opacity="1" stroke-miterlimit="10" d="M 0.0016728 0.00133577 L 26.725789 31.85025 " transform="translate(0,-10.0) matrix(0.997753, 0, 0, -0.997753, 374.763956, 123.997427)" />
<path xmlns="http://www.w3.org/2000/svg" fill="none" stroke-width="1" stroke-linecap="butt" stroke-linejoin="miter" stroke="#F2F2F2" stroke-opacity="1" stroke-miterlimit="10" d="M -0.00119248 0.00158398 L 40.946293 7.220932 " transform="translate(0,-10.0) matrix(0.997753, 0, 0, -0.997753, 381.680877, 135.978143)" />
<path xmlns="http://www.w3.org/2000/svg" fill="none" stroke-width="1" stroke-linecap="butt" stroke-linejoin="miter" stroke="#F2F2F2" stroke-opacity="1" stroke-miterlimit="10" d="M -0.00134692 -0.00100018 L 36.009263 20.787904 " transform="translate(0,-10.0) matrix(0.997753, 0, 0, -0.997753, 379.278688, 129.377908)" />
<path xmlns="http://www.w3.org/2000/svg" fill="none" stroke-width="1" stroke-linecap="butt" stroke-linejoin="miter" stroke="#F2F2F2" stroke-opacity="1" stroke-miterlimit="10" d="M 0.000543764 0.0011638 L -14.222825 39.069426 " transform="translate(0,-10.0) matrix(0.997753, 0, 0, -0.997753, 354.847114, 120.485536)" />
<path xmlns="http://www.w3.org/2000/svg" fill="none" stroke-width="1" stroke-linecap="butt" stroke-linejoin="miter" stroke="#F2F2F2" stroke-opacity="1" stroke-miterlimit="10" d="M 0.00121425 0.00133577 L -26.726817 31.85025 " transform="translate(0,-10.0) matrix(0.997753, 0, 0, -0.997753, 348.764413, 123.997427)" />
<path xmlns="http://www.w3.org/2000/svg" fill="none" stroke-width="1" stroke-linecap="butt" stroke-linejoin="miter" stroke="#F2F2F2" stroke-opacity="1" stroke-miterlimit="10" d="M 0.000364485 0.00158398 L -40.947121 7.220932 " transform="translate(0,-10.0) matrix(0.997753, 0, 0, -0.997753, 341.847293, 135.978143)" />
<path xmlns="http://www.w3.org/2000/svg" fill="none" stroke-width="1" stroke-linecap="butt" stroke-linejoin="miter" stroke="#F2F2F2" stroke-opacity="1" stroke-miterlimit="10" d="M 0.000418919 -0.00100018 L -36.006276 20.787904 " transform="translate(0,-10.0) matrix(0.997753, 0, 0, -0.997753, 344.249582, 129.377908)" />
</g><animateTransform attributeName="transform" type="rotate" additive="sum" from="0 361.8 130.1" to="20.0000 361.8 130.1" dur="5s" repeatCount="indefinite"/></g></g><path xmlns="http://www.w3.org/2000/svg" fill-rule="nonzero" fill="#F2F2F2" fill-opacity="1" d="M 350.988281 140.097656 C 350.988281 134.148438 355.8125 129.324219 361.765625 129.324219 C 367.714844 129.324219 372.539062 134.148438 372.539062 140.097656 Z M 350.988281 140.097656 " transform="translate(0,-10.0)" />
</svg>
