<svg xmlns="http://www.w3.org/2000/svg" xmlns:xlink="http://www.w3.org/1999/xlink" viewBox="0 0 460.8 266.4"><path xmlns="http://www.w3.org/2000/svg" fill-rule="nonzero" fill="#1A1A1A" fill-opacity="1" d="M 55.1875 212.632812 L 55.1875 182.128906 C 50.222656 177.703125 45.746094 176.078125 40.996094 176.078125 C 31.691406 176.078125 24.289062 185.050781 24.289062 198.3125 C 24.289062 212.265625 30.0625 220.574219 40.261719 220.574219 C 45.644531 220.574219 50.308594 217.949219 55.1875 212.632812 M 55.1875 231.300781 L 55.605469 220.753906 C 50.953125 225.253906 44.839844 228.859375 38.085938 228.859375 C 23.542969 228.859375 14.113281 217.796875 14.113281 198.398438 C 14.113281 179.519531 26.023438 167.789062 39.296875 167.789062 C 46.019531 167.789062 50.765625 170.246094 55.917969 174.757812 L 56.246094 174.757812 L 57.164062 169.226562 L 65.039062 169.226562 L 65.039062 251.976562 L 55.1875 251.976562 Z M 55.1875 231.300781 " />
<path xmlns="http://www.w3.org/2000/svg" fill-rule="nonzero" fill="#1A1A1A" fill-opacity="1" d="M 83.929688 206.101562 L 83.929688 169.226562 L 93.777344 169.226562 L 93.777344 204.828125 C 93.777344 215.667969 97.054688 220.308594 104.757812 220.308594 C 110.707031 220.308594 114.832031 217.359375 120.339844 210.5 L 120.339844 169.226562 L 130.1875 169.226562 L 130.1875 227.421875 L 122.050781 227.421875 L 121.222656 218.308594 L 120.894531 218.308594 C 115.5 224.664062 109.6875 228.859375 101.699219 228.859375 C 89.4375 228.859375 83.929688 220.945312 83.929688 206.101562 " />
<path xmlns="http://www.w3.org/2000/svg" fill-rule="nonzero" fill="#1A1A1A" fill-opacity="1" d="M 181.980469 213.222656 L 181.980469 197.0625 C 162.480469 199.40625 155.886719 204.183594 155.886719 211.621094 C 155.886719 218.234375 160.375 220.925781 166.082031 220.925781 C 171.707031 220.925781 176.347656 218.191406 181.980469 213.222656 M 146.238281 212.3125 C 146.238281 199.636719 157.179688 193.296875 181.980469 190.597656 C 181.957031 183.113281 179.472656 175.898438 169.96875 175.898438 C 163.238281 175.898438 157.175781 179.089844 152.613281 182.136719 L 148.761719 175.386719 C 154.113281 171.875 162.28125 167.789062 171.617188 167.789062 C 185.820312 167.789062 191.828125 177.230469 191.828125 191.71875 L 191.828125 227.421875 L 183.695312 227.421875 L 182.863281 220.464844 L 182.535156 220.464844 C 176.988281 225.078125 170.511719 228.859375 163.289062 228.859375 C 153.546875 228.859375 146.238281 222.8125 146.238281 212.3125 " />
<path xmlns="http://www.w3.org/2000/svg" fill-rule="nonzero" fill="#1A1A1A" fill-opacity="1" d="M 210.1875 169.226562 L 218.324219 169.226562 L 219.152344 177.621094 L 219.480469 177.621094 C 225.027344 172.160156 231.015625 167.789062 239.003906 167.789062 C 251.265625 167.789062 256.773438 175.703125 256.773438 190.546875 L 256.773438 227.421875 L 246.925781 227.421875 L 246.925781 191.820312 C 246.925781 180.980469 243.648438 176.339844 235.945312 176.339844 C 229.996094 176.339844 225.875 179.378906 220.035156 185.277344 L 220.035156 227.421875 L 210.1875 227.421875 Z M 210.1875 169.226562 " />
<path xmlns="http://www.w3.org/2000/svg" fill-rule="nonzero" fill="#1A1A1A" fill-opacity="1" d="M 277.40625 209.429688 L 277.40625 177.25 L 268.746094 177.25 L 268.746094 169.332031 L 277.847656 169.226562 L 277.84375 148.84375 L 287.253906 148.84375 L 287.253906 169.226562 L 303.019531 169.226562 L 303.019531 177.25 L 287.253906 177.25 L 287.253906 209.601562 C 287.253906 216.714844 289.546875 220.839844 296.253906 220.839844 C 298.320312 220.839844 300.992188 220.054688 302.882812 219.273438 L 304.785156 226.703125 C 301.519531 227.816406 297.621094 228.859375 293.988281 228.859375 C 281.601562 228.859375 277.40625 221.011719 277.40625 209.429688 " />
<path xmlns="http://www.w3.org/2000/svg" fill-rule="nonzero" fill="#1A1A1A" fill-opacity="1" d="M 317.066406 148.84375 L 362.359375 148.84375 L 362.359375 157.308594 L 327.066406 157.308594 L 327.066406 181.929688 L 356.835938 181.929688 L 356.835938 190.394531 L 327.066406 190.394531 L 327.066406 218.960938 L 363.554688 218.960938 L 363.554688 227.421875 L 317.066406 227.421875 Z M 317.066406 148.84375 " />
<path xmlns="http://www.w3.org/2000/svg" fill-rule="nonzero" fill="#1A1A1A" fill-opacity="1" d="M 380.164062 148.84375 L 392.207031 148.84375 L 407.269531 190.832031 C 409.160156 196.199219 410.960938 201.746094 412.851562 207.203125 L 413.332031 207.203125 C 415.222656 201.746094 416.875 196.199219 418.765625 190.832031 L 433.648438 148.84375 L 445.691406 148.84375 L 445.691406 227.421875 L 436.398438 227.421875 L 436.398438 184.15625 C 436.398438 177.316406 437.164062 167.871094 437.667969 160.921875 L 437.191406 160.921875 L 430.953125 178.84375 L 416.152344 219.488281 L 409.527344 219.488281 L 394.652344 178.84375 L 388.425781 160.921875 L 387.949219 160.921875 C 388.453125 167.871094 389.21875 177.316406 389.21875 184.15625 L 389.21875 227.421875 L 380.164062 227.421875 Z M 380.164062 148.84375 " />
</svg>
